<?xml version="1.0" encoding="utf-8"?>
<!-- Generator: Adobe Illustrator 24.0.2, SVG Export Plug-In . SVG Version: 6.00 Build 0)  -->
<svg version="1.1" id="svg" xmlns="http://www.w3.org/2000/svg" xmlns:xlink="http://www.w3.org/1999/xlink" x="0px" y="0px"
	 viewBox="0 0 400 400" style="enable-background:new 0 0 400 400;" xml:space="preserve">
<style type="text/css">
	.st0{display:none;fill-rule:evenodd;clip-rule:evenodd;fill:#FBFBFB;}
	.st1{fill-rule:evenodd;clip-rule:evenodd;fill:#FBFBFB;}
	.st2{fill-rule:evenodd;clip-rule:evenodd;fill:#3C3C3C;}
</style>
<g id="svgg">
	<path id="path1" class="st0" d="M220.4,88.2c54.4,8,97.1,59,95.5,113.8c-0.9,31.4-12.1,57.9-33.5,79.2
		C226.1,337.5,129.8,322,95,251c-31.9-65,2.4-139.4,73.4-159.2c7-2,8.1-2.2,14.5-2.8c4.8-0.5,10.2-1.2,15.7-2
		C201.8,86.6,213.8,87.2,220.4,88.2 M253.4,128.4c-3.7,1.1-5.2,5.3-2.9,8.1c0.9,1.1,18.6,10.3,20.8,10.8c5,1.2,0-8.8-7.4-14.9
		C259.9,129,256.1,127.6,253.4,128.4 M165.5,145.4c-3.5,1.3-6.9,4.5-12.2,11.8c-9.4,12.8-9.7,12.9-23,6.1c-11-5.6-13.6-5.9-15.3-1.8
		c-1.4,3.3,0,6.4,5,10.9c13.5,12.1,13.5,12.1,5.4,26.8c-6.1,11-6.6,13.7-3.5,17c3.3,3.4,6.4,1.6,14.3-8.3
		c9.9-12.4,11.1-12.7,22.9-5.7c12.5,7.4,16.9,8.2,19.5,3.9c1.9-3.2,0.2-5.7-9.4-14.1c-12.5-10.9-12.6-11.4-4.5-23.5
		c6.3-9.5,8.4-13.7,8.4-16.9C173,146.8,169.4,143.9,165.5,145.4 M250.5,157.5c-6.3,2.2-10.8,11.5-12.5,25.7
		c-2,16.7-0.6,18.3,13.6,15.6c11-2,11.4-2.6,12.4-18.3C265.1,163.5,259.7,154.2,250.5,157.5 M264,226.8c-1.4,0.2-5.5,0.6-9,1
		c-3.5,0.3-9,1-12.2,1.6c-7.3,1.2-8.6,1.3-17.5,1.8c-4,0.2-9.3,0.7-11.6,1c-10.4,1.4-15.5,1.8-28.4,2.2c-7.9,0.2-17,0.7-21.4,1.2
		c-4.2,0.4-12.2,1.1-17.7,1.4c-13.4,0.9-14.9,1.2-15.8,4c-1.7,5.3,14.4,27.4,25.4,34.8c11.4,7.7,19.1,9.5,40.2,9.5
		c17.4,0,19.6-0.3,28.9-3.4c20.7-6.9,31.7-16.6,42.2-37.1c6.2-12.2,6.8-16.8,2.1-18C267.6,226.4,267.7,226.4,264,226.8"/>
	<path id="path1_1_" class="st1" d="M220.2,88.3c54.4,8,97.1,59,95.5,113.8c-0.9,31.4-12.1,57.9-33.5,79.2
		c-56.3,56.3-152.6,40.8-187.4-30.2c-31.9-65,2.4-139.4,73.4-159.2c7-2,8.1-2.2,14.5-2.8c4.8-0.5,10.2-1.2,15.7-2
		C201.6,86.6,213.6,87.3,220.2,88.3"/>
	<path id="path0" class="st2" d="M198.6,87c-5.5,0.8-10.9,1.5-15.7,2c-19.3,2-43.8,12.7-59.7,26c-49.8,41.8-53.8,117.1-8.7,164.2
		c45.6,47.6,121.3,48.6,167.8,2.1c21.4-21.3,32.5-47.8,33.5-79.2c1.6-54.8-41.1-105.8-95.5-113.8C213.8,87.2,201.8,86.6,198.6,87
		 M259.7,129.4c8.3,4.2,18.3,19.6,11.7,17.9c-2.3-0.6-20-9.8-20.8-10.8C246.3,131.4,253.1,126.1,259.7,129.4 M170.4,146
		c4.8,3.4,3.6,8.3-5.7,22.4c-8,12.1-7.9,12.6,4.5,23.5c9.6,8.4,11.3,10.9,9.4,14.1c-2.6,4.4-7,3.5-19.5-3.9
		c-11.8-6.9-12.9-6.7-22.9,5.7c-7.9,9.9-11.1,11.7-14.3,8.3c-3.2-3.3-2.6-6,3.5-17c8.1-14.6,8.1-14.6-5.4-26.8
		c-4.9-4.4-6.4-7.5-5-10.9c1.7-4.1,4.4-3.8,15.3,1.8c13.3,6.8,13.6,6.7,23-6.1C161.1,146.4,166.3,143.1,170.4,146 M257,157.6
		c5.3,2.4,7.8,10.5,7,23c-1,15.6-1.4,16.2-12.4,18.3c-14.2,2.6-15.6,1-13.6-15.6C240.3,164.3,248.2,153.6,257,157.6 M269.3,226.8
		c4.6,1.3,4.1,5.8-2.1,18c-10.5,20.5-21.5,30.2-42.2,37.1c-9.3,3.1-11.5,3.4-28.9,3.4c-21.1,0-28.8-1.8-40.2-9.5
		c-11.1-7.5-27.2-29.5-25.4-34.8c0.9-2.8,2.4-3.2,15.8-4c5.5-0.4,13.5-1,17.7-1.4c4.4-0.5,13.5-1,21.4-1.2
		c12.9-0.4,17.9-0.8,28.4-2.2c2.3-0.3,7.6-0.8,11.6-1c8.9-0.5,10.2-0.6,17.5-1.8c3.2-0.5,8.7-1.2,12.2-1.6c3.5-0.3,7.6-0.8,9-1
		C267.7,226.4,267.6,226.4,269.3,226.8"/>
</g>
</svg>
