<?xml version="1.0" encoding="utf-8"?>
<!-- Generator: Adobe Illustrator 24.0.2, SVG Export Plug-In . SVG Version: 6.00 Build 0)  -->
<svg version="1.1" id="svg" xmlns="http://www.w3.org/2000/svg" xmlns:xlink="http://www.w3.org/1999/xlink" x="0px" y="0px"
	 viewBox="0 0 233 228.7" style="enable-background:new 0 0 233 228.7;" xml:space="preserve">
<style type="text/css">
	.st0{fill-rule:evenodd;clip-rule:evenodd;fill:#FBFBFB;}
	.st1{fill-rule:evenodd;clip-rule:evenodd;fill:#3C3C3C;}
</style>
<g id="svgg">
	<path id="path1_1_" class="st0" d="M137.4,1.4c54.4,8,97.1,59,95.5,113.8c-0.9,31.4-12.1,57.9-33.5,79.2
		C143.1,250.7,46.8,235.2,12,164.2C-19.9,99.2,14.4,24.8,85.4,5c7-2,8.1-2.2,14.5-2.8c4.8-0.5,10.2-1.2,15.7-2
		C118.8-0.3,130.8,0.4,137.4,1.4"/>
	<path id="path0" class="st1" d="M115.8,0.1c-5.5,0.8-10.9,1.5-15.7,2c-19.3,2-43.8,12.7-59.7,26c-49.8,41.8-53.8,117.1-8.7,164.2
		c45.6,47.6,121.3,48.6,167.8,2.1c21.4-21.3,32.5-47.8,33.5-79.2c1.6-54.8-41.1-105.8-95.5-113.8C131,0.3,119-0.3,115.8,0.1
		 M176.9,42.5c8.3,4.2,18.3,19.6,11.7,17.9c-2.3-0.6-20-9.8-20.8-10.8C163.5,44.5,170.3,39.2,176.9,42.5 M87.6,59.1
		c4.8,3.4,3.6,8.3-5.7,22.4c-8,12.1-7.9,12.6,4.5,23.5c9.6,8.4,11.3,10.9,9.4,14.1c-2.6,4.4-7,3.5-19.5-3.9
		c-11.8-6.9-12.9-6.7-22.9,5.7c-7.9,9.9-11.1,11.7-14.3,8.3c-3.2-3.3-2.6-6,3.5-17c8.1-14.6,8.1-14.6-5.4-26.8
		c-4.9-4.4-6.4-7.5-5-10.9c1.7-4.1,4.4-3.8,15.3,1.8c13.3,6.8,13.6,6.7,23-6.1C78.3,59.5,83.5,56.2,87.6,59.1 M174.2,70.7
		c5.3,2.4,7.8,10.5,7,23c-1,15.6-1.4,16.2-12.4,18.3c-14.2,2.6-15.6,1-13.6-15.6C157.5,77.4,165.4,66.7,174.2,70.7 M186.5,139.9
		c4.6,1.3,4.1,5.8-2.1,18c-10.5,20.5-21.5,30.2-42.2,37.1c-9.3,3.1-11.5,3.4-28.9,3.4c-21.1,0-28.8-1.8-40.2-9.5
		c-11.1-7.5-27.2-29.5-25.4-34.8c0.9-2.8,2.4-3.2,15.8-4c5.5-0.4,13.5-1,17.7-1.4c4.4-0.5,13.5-1,21.4-1.2
		c12.9-0.4,17.9-0.8,28.4-2.2c2.3-0.3,7.6-0.8,11.6-1c8.9-0.5,10.2-0.6,17.5-1.8c3.2-0.5,8.7-1.2,12.2-1.6c3.5-0.3,7.6-0.8,9-1
		C184.9,139.5,184.8,139.5,186.5,139.9"/>
</g>
</svg>
