<?xml version="1.0" standalone="no"?>
<!DOCTYPE svg PUBLIC "-//W3C//DTD SVG 20010904//EN"
 "http://www.w3.org/TR/2001/REC-SVG-20010904/DTD/svg10.dtd">
<svg version="1.0" xmlns="http://www.w3.org/2000/svg"
 width="25.000000pt" height="32.000000pt" viewBox="0 0 25.000000 32.000000"
 preserveAspectRatio="xMidYMid meet">

<g transform="translate(0.000000,32.000000) scale(0.100000,-0.100000)"
fill="#000000" stroke="none">
<path d="M70 294 c0 -12 -6 -24 -12 -27 -10 -3 -10 -7 1 -20 9 -12 10 -17 2
-17 -23 0 -61 -49 -61 -78 0 -30 35 -72 61 -72 17 0 42 -57 32 -74 -3 -6 0 -5
7 1 11 10 11 17 1 37 -8 13 -10 29 -7 35 14 22 25 10 29 -32 l4 -42 1 43 c1
30 6 42 15 40 15 -6 22 -48 8 -48 -15 0 -14 -27 1 -36 7 -5 8 -3 3 5 -5 9 -2
9 14 -1 18 -11 23 -10 38 5 16 16 16 18 -7 39 -23 22 -23 23 -5 26 57 11 75
83 30 127 -13 14 -29 25 -36 25 -8 0 -7 5 2 17 11 13 11 17 2 20 -7 3 -13 15
-13 27 0 21 -4 23 -55 23 -51 0 -55 -2 -55 -23z m90 -12 c0 -15 -7 -26 -20
-29 -11 -3 -20 -9 -20 -14 0 -5 -9 -1 -20 8 -11 10 -20 27 -20 38 0 18 6 21
40 20 35 0 40 -3 40 -23z m-60 -71 c0 -3 11 -6 25 -6 14 0 25 3 25 7 0 12 42
-1 62 -19 13 -12 18 -27 16 -52 -3 -31 -7 -36 -35 -42 -18 -3 -36 -2 -42 4
-16 16 -13 29 7 25 9 -1 27 4 38 12 l22 15 -25 30 c-19 23 -22 24 -13 7 15
-30 6 -52 -20 -52 -11 0 -23 -7 -27 -16 -5 -15 -7 -15 -15 0 -5 9 -18 16 -29
16 -25 0 -34 22 -19 52 9 17 6 16 -13 -7 l-25 -30 22 -15 c11 -8 29 -13 39
-12 20 4 23 -13 5 -25 -16 -9 -49 -5 -65 9 -22 18 -15 65 11 86 23 18 56 25
56 13z m105 -181 c-3 -5 -11 -10 -16 -10 -6 0 -7 5 -4 10 3 6 11 10 16 10 6 0
7 -4 4 -10z"/>
<path d="M100 276 c0 -8 4 -17 9 -20 5 -4 7 3 4 14 -6 23 -13 26 -13 6z"/>
<path d="M131 274 c0 -11 3 -14 6 -6 3 7 2 16 -1 19 -3 4 -6 -2 -5 -13z"/>
<path d="M116 178 c3 -5 10 -6 15 -3 13 9 11 12 -6 12 -8 0 -12 -4 -9 -9z"/>
</g>
</svg>
