<svg id="svg" version="1.1" xmlns="http://www.w3.org/2000/svg" xmlns:xlink="http://www.w3.org/1999/xlink" width="400" height="400" viewBox="0, 0, 400,400"><g id="svgg"><path id="path0" d="M198.600 87.034 C 193.150 87.813,187.723 88.491,182.924 88.993 C 163.626 91.009,139.104 101.695,123.273 114.986 C 73.450 156.814,69.481 232.040,114.611 279.138 C 160.250 326.765,235.913 327.697,282.405 281.205 C 303.756 259.855,314.951 233.375,315.893 202.000 C 317.535 147.230,274.750 96.242,220.400 88.201 C 213.775 87.221,201.784 86.579,198.600 87.034 M259.668 129.439 C 267.930 133.606,277.962 149.011,271.329 147.346 C 269.058 146.777,251.370 137.566,250.502 136.501 C 246.300 131.351,253.089 126.121,259.668 129.439 M170.375 145.955 C 175.204 149.392,173.947 154.294,164.642 168.314 C 156.622 180.397,156.724 180.924,169.182 191.774 C 178.828 200.175,180.497 202.681,178.593 205.904 C 175.996 210.301,171.569 209.427,159.076 202.052 C 147.308 195.104,146.140 195.398,136.221 207.800 C 128.330 217.665,125.147 219.504,121.882 216.081 C 118.711 212.757,119.254 210.099,125.356 199.068 C 133.459 184.420,133.463 184.442,119.928 172.304 C 115.001 167.886,113.570 164.760,114.958 161.439 C 116.673 157.333,119.327 157.646,130.294 163.245 C 143.574 170.025,143.860 169.949,153.258 157.161 C 161.145 146.430,166.300 143.056,170.375 145.955 M257.022 157.554 C 262.334 159.967,264.798 168.102,263.992 180.560 C 262.980 196.195,262.573 196.794,251.565 198.841 C 237.408 201.474,236.002 199.853,237.993 183.200 C 240.255 164.280,248.214 153.554,257.022 157.554 M269.282 226.816 C 273.907 228.100,273.367 232.664,267.148 244.854 C 256.668 265.395,245.657 275.084,224.941 281.995 C 215.617 285.105,213.434 285.360,196.000 285.371 C 174.932 285.385,167.172 283.550,155.800 275.863 C 144.742 268.389,128.644 246.320,130.391 241.029 C 131.308 238.248,132.785 237.873,146.200 237.011 C 151.700 236.658,159.659 236.012,163.887 235.576 C 168.299 235.121,177.416 234.620,185.287 234.400 C 198.142 234.041,203.222 233.648,213.656 232.205 C 215.997 231.881,221.217 231.434,225.256 231.210 C 234.200 230.717,235.462 230.585,242.800 229.378 C 245.990 228.854,251.480 228.147,255.000 227.808 C 258.520 227.468,262.570 227.035,264.000 226.846 C 267.667 226.360,267.641 226.360,269.282 226.816 " stroke="none" fill="#3c3c3c" fill-rule="evenodd"></path><path id="path1" d="M0.000 200.000 L 0.000 400.000 200.000 400.000 L 400.000 400.000 400.000 200.000 L 400.000 0.000 200.000 0.000 L 0.000 0.000 0.000 200.000 M220.400 88.201 C 274.750 96.242,317.535 147.230,315.893 202.000 C 314.951 233.375,303.756 259.855,282.405 281.205 C 226.092 337.519,129.786 321.997,94.994 251.000 C 63.128 185.974,97.432 111.594,168.400 91.836 C 175.445 89.875,176.544 89.659,182.924 88.993 C 187.723 88.491,193.150 87.813,198.600 87.034 C 201.784 86.579,213.775 87.221,220.400 88.201 M253.448 128.405 C 249.739 129.544,248.224 133.709,250.502 136.501 C 251.370 137.566,269.058 146.777,271.329 147.346 C 276.304 148.595,271.364 138.560,263.978 132.413 C 259.871 128.996,256.144 127.577,253.448 128.405 M165.479 145.373 C 161.978 146.633,158.607 149.884,153.258 157.161 C 143.860 169.949,143.574 170.025,130.294 163.245 C 119.327 157.646,116.673 157.333,114.958 161.439 C 113.570 164.760,115.001 167.886,119.928 172.304 C 133.463 184.442,133.459 184.420,125.356 199.068 C 119.254 210.099,118.711 212.757,121.882 216.081 C 125.147 219.504,128.330 217.665,136.221 207.800 C 146.140 195.398,147.308 195.104,159.076 202.052 C 171.569 209.427,175.996 210.301,178.593 205.904 C 180.497 202.681,178.828 200.175,169.182 191.774 C 156.724 180.924,156.622 180.397,164.642 168.314 C 170.954 158.803,173.000 154.656,173.000 151.367 C 173.000 146.784,169.441 143.948,165.479 145.373 M250.530 157.455 C 244.205 159.696,239.696 168.956,237.993 183.200 C 236.002 199.853,237.408 201.474,251.565 198.841 C 262.573 196.794,262.980 196.195,263.992 180.560 C 265.095 163.518,259.675 154.215,250.530 157.455 M264.000 226.846 C 262.570 227.035,258.520 227.468,255.000 227.808 C 251.480 228.147,245.990 228.854,242.800 229.378 C 235.462 230.585,234.200 230.717,225.256 231.210 C 221.217 231.434,215.997 231.881,213.656 232.205 C 203.222 233.648,198.142 234.041,185.287 234.400 C 177.416 234.620,168.299 235.121,163.887 235.576 C 159.659 236.012,151.700 236.658,146.200 237.011 C 132.785 237.873,131.308 238.248,130.391 241.029 C 128.644 246.320,144.742 268.389,155.800 275.863 C 167.172 283.550,174.932 285.385,196.000 285.371 C 213.434 285.360,215.617 285.105,224.941 281.995 C 245.657 275.084,256.668 265.395,267.148 244.854 C 273.367 232.664,273.907 228.100,269.282 226.816 C 267.641 226.360,267.667 226.360,264.000 226.846 " stroke="none" fill="#fbfbfb" fill-rule="evenodd"></path></g></svg>